<svg width="134" height="129" viewBox="0 0 134 129" fill="none" xmlns="http://www.w3.org/2000/svg">
<g filter="url(#filter0_d_2_59)">
<path d="M64.3937 4.57235C65.5446 2.5532 68.4554 2.55321 69.6063 4.57235L77.2862 18.0455C78.1125 19.495 79.9626 19.9919 81.4039 19.1514L95.4887 10.9373C97.4887 9.771 100 11.2136 100 13.5289V28C100 29.6569 101.343 31 103 31H118.579C120.97 31 122.4 33.6596 121.082 35.654L112.85 48.1109C111.859 49.6099 112.399 51.6376 114.005 52.445L127.672 59.32C129.875 60.4279 129.875 63.5721 127.672 64.68L114.005 71.555C112.399 72.3624 111.859 74.3901 112.85 75.8891L120.968 88.1736C122.309 90.2022 120.806 92.8993 118.375 92.8262L102.399 92.3461C100.667 92.2941 99.2515 93.7154 99.3105 95.4469L99.815 110.262C99.8954 112.622 97.3449 114.145 95.3055 112.956L81.4039 104.849C79.9626 104.008 78.1125 104.505 77.2862 105.954L69.6063 119.428C68.4554 121.447 65.5446 121.447 64.3937 119.428L56.7138 105.954C55.8875 104.505 54.0374 104.008 52.5961 104.849L38.6945 112.956C36.6551 114.145 34.1046 112.622 34.185 110.262L34.6895 95.4469C34.7485 93.7154 33.3328 92.2941 31.6011 92.3461L15.6249 92.8262C13.1944 92.8993 11.6913 90.2022 13.0319 88.1736L21.1502 75.8891C22.1408 74.3901 21.6006 72.3624 19.9955 71.555L6.32793 64.68C4.12541 63.5721 4.12541 60.4279 6.32793 59.32L19.9955 52.445C21.6006 51.6376 22.1408 49.6099 21.1502 48.1109L13.0319 35.8264C11.6913 33.7978 13.1944 31.1007 15.6249 31.1738L31.6011 31.6539C33.3328 31.7059 34.7485 30.2846 34.6895 28.5531L34.185 13.7378C34.1046 11.3783 36.6551 9.85485 38.6945 11.0442L52.5961 19.1514C54.0374 19.9919 55.8875 19.495 56.7138 18.0455L64.3937 4.57235Z" fill="#E9EB97"/>
<path d="M69.1719 4.81996L76.8518 18.2931C77.8158 19.9842 79.9743 20.5639 81.6557 19.5833L95.7406 11.3693C97.4072 10.3973 99.5 11.5995 99.5 13.5289V28C99.5 29.933 101.067 31.5 103 31.5H118.579C120.571 31.5 121.763 33.7163 120.665 35.3784L112.433 47.8352C111.277 49.584 111.907 51.9497 113.78 52.8916L127.447 59.7666C129.283 60.6899 129.283 63.3101 127.447 64.2334L113.78 71.1084C111.907 72.0503 111.277 74.416 112.433 76.1648L120.551 88.4492C121.668 90.1397 120.416 92.3873 118.39 92.3264L102.414 91.8463C100.394 91.7856 98.742 93.4439 98.8108 95.4639L99.3153 110.279C99.3823 112.245 97.2569 113.515 95.5573 112.524L81.6558 104.417C79.9743 103.436 77.8158 104.016 76.8518 105.707L69.1719 119.18C68.2128 120.863 65.7872 120.863 64.8281 119.18L57.1482 105.707C56.1842 104.016 54.0257 103.436 52.3443 104.417L38.4427 112.524C36.7431 113.515 34.6177 112.245 34.6847 110.279L35.1892 95.4639C35.258 93.4439 33.6064 91.7856 31.5861 91.8463L15.6099 92.3264C13.5845 92.3873 12.3319 90.1397 13.4491 88.4492L21.5674 76.1648C22.7231 74.416 22.0928 72.0503 20.2202 71.1084L6.55262 64.2334C4.71718 63.3101 4.71718 60.6899 6.55262 59.7666L20.2202 52.8916C22.0928 51.9497 22.7231 49.584 21.5674 47.8352L13.4491 35.5508C12.3319 33.8603 13.5845 31.6127 15.6099 31.6735L31.5861 32.1537C33.6064 32.2144 35.258 30.5561 35.1892 28.5361L34.6847 13.7208C34.6177 11.7545 36.7431 10.485 38.4427 11.4761L52.3443 19.5833C54.0257 20.5639 56.1842 19.9842 57.1482 18.2931L64.8281 4.81996C65.7872 3.13734 68.2128 3.13734 69.1719 4.81996Z" stroke="black" stroke-opacity="0.5"/>
</g>
<path d="M42.358 59.336C42.358 59.9053 42.2273 60.428 41.966 60.904C41.7047 61.3707 41.3033 61.7487 40.762 62.038C40.2207 62.3273 39.5487 62.472 38.746 62.472H37.262V66H34.868V56.172H38.746C39.53 56.172 40.1927 56.3073 40.734 56.578C41.2753 56.8487 41.6813 57.222 41.952 57.698C42.2227 58.174 42.358 58.72 42.358 59.336ZM38.564 60.568C39.0213 60.568 39.362 60.4607 39.586 60.246C39.81 60.0313 39.922 59.728 39.922 59.336C39.922 58.944 39.81 58.6407 39.586 58.426C39.362 58.2113 39.0213 58.104 38.564 58.104H37.262V60.568H38.564ZM45.9983 59.49C46.2783 59.0607 46.6283 58.7247 47.0483 58.482C47.4683 58.23 47.935 58.104 48.4483 58.104V60.638H47.7903C47.193 60.638 46.745 60.7687 46.4463 61.03C46.1477 61.282 45.9983 61.73 45.9983 62.374V66H43.6043V58.188H45.9983V59.49ZM56.9566 61.968C56.9566 62.192 56.9426 62.4253 56.9146 62.668H51.4966C51.5339 63.1533 51.6879 63.5267 51.9586 63.788C52.2386 64.04 52.5793 64.166 52.9806 64.166C53.5779 64.166 53.9933 63.914 54.2266 63.41H56.7746C56.6439 63.9233 56.4059 64.3853 56.0606 64.796C55.7246 65.2067 55.2999 65.5287 54.7866 65.762C54.2733 65.9953 53.6993 66.112 53.0646 66.112C52.2993 66.112 51.6179 65.9487 51.0206 65.622C50.4233 65.2953 49.9566 64.8287 49.6206 64.222C49.2846 63.6153 49.1166 62.906 49.1166 62.094C49.1166 61.282 49.2799 60.5727 49.6066 59.966C49.9426 59.3593 50.4093 58.8927 51.0066 58.566C51.6039 58.2393 52.2899 58.076 53.0646 58.076C53.8206 58.076 54.4926 58.2347 55.0806 58.552C55.6686 58.8693 56.1259 59.322 56.4526 59.91C56.7886 60.498 56.9566 61.184 56.9566 61.968ZM54.5066 61.338C54.5066 60.9273 54.3666 60.6007 54.0866 60.358C53.8066 60.1153 53.4566 59.994 53.0366 59.994C52.6353 59.994 52.2946 60.1107 52.0146 60.344C51.7439 60.5773 51.5759 60.9087 51.5106 61.338H54.5066ZM68.1876 58.104C69.1582 58.104 69.9282 58.398 70.4976 58.986C71.0762 59.574 71.3656 60.3907 71.3656 61.436V66H68.9856V61.758C68.9856 61.254 68.8502 60.8667 68.5796 60.596C68.3182 60.316 67.9542 60.176 67.4876 60.176C67.0209 60.176 66.6522 60.316 66.3816 60.596C66.1202 60.8667 65.9896 61.254 65.9896 61.758V66H63.6096V61.758C63.6096 61.254 63.4742 60.8667 63.2036 60.596C62.9422 60.316 62.5782 60.176 62.1116 60.176C61.6449 60.176 61.2762 60.316 61.0056 60.596C60.7442 60.8667 60.6136 61.254 60.6136 61.758V66H58.2196V58.188H60.6136V59.168C60.8562 58.8413 61.1736 58.5847 61.5656 58.398C61.9576 58.202 62.4009 58.104 62.8956 58.104C63.4836 58.104 64.0062 58.23 64.4636 58.482C64.9302 58.734 65.2942 59.0933 65.5556 59.56C65.8262 59.1307 66.1949 58.7807 66.6616 58.51C67.1282 58.2393 67.6369 58.104 68.1876 58.104ZM74.2439 57.376C73.8239 57.376 73.4785 57.2547 73.2079 57.012C72.9465 56.76 72.8159 56.452 72.8159 56.088C72.8159 55.7147 72.9465 55.4067 73.2079 55.164C73.4785 54.912 73.8239 54.786 74.2439 54.786C74.6545 54.786 74.9905 54.912 75.2519 55.164C75.5225 55.4067 75.6579 55.7147 75.6579 56.088C75.6579 56.452 75.5225 56.76 75.2519 57.012C74.9905 57.2547 74.6545 57.376 74.2439 57.376ZM75.4339 58.188V66H73.0399V58.188H75.4339ZM84.8828 58.188V66H82.4888V64.936C82.2461 65.2813 81.9148 65.5613 81.4948 65.776C81.0841 65.9813 80.6268 66.084 80.1228 66.084C79.5254 66.084 78.9981 65.9533 78.5408 65.692C78.0834 65.4213 77.7288 65.034 77.4768 64.53C77.2248 64.026 77.0988 63.4333 77.0988 62.752V58.188H79.4788V62.43C79.4788 62.9527 79.6141 63.3587 79.8848 63.648C80.1554 63.9373 80.5194 64.082 80.9768 64.082C81.4434 64.082 81.8121 63.9373 82.0828 63.648C82.3534 63.3587 82.4888 62.9527 82.4888 62.43V58.188H84.8828ZM96.5704 58.104C97.541 58.104 98.311 58.398 98.8804 58.986C99.459 59.574 99.7484 60.3907 99.7484 61.436V66H97.3684V61.758C97.3684 61.254 97.233 60.8667 96.9624 60.596C96.701 60.316 96.337 60.176 95.8704 60.176C95.4037 60.176 95.035 60.316 94.7644 60.596C94.503 60.8667 94.3724 61.254 94.3724 61.758V66H91.9924V61.758C91.9924 61.254 91.857 60.8667 91.5864 60.596C91.325 60.316 90.961 60.176 90.4944 60.176C90.0277 60.176 89.659 60.316 89.3884 60.596C89.127 60.8667 88.9964 61.254 88.9964 61.758V66H86.6024V58.188H88.9964V59.168C89.239 58.8413 89.5564 58.5847 89.9484 58.398C90.3404 58.202 90.7837 58.104 91.2784 58.104C91.8664 58.104 92.389 58.23 92.8464 58.482C93.313 58.734 93.677 59.0933 93.9384 59.56C94.209 59.1307 94.5777 58.7807 95.0444 58.51C95.511 58.2393 96.0197 58.104 96.5704 58.104Z" fill="black"/>
<defs>
<filter id="filter0_d_2_59" x="0.676041" y="3.05798" width="132.648" height="125.884" filterUnits="userSpaceOnUse" color-interpolation-filters="sRGB">
<feFlood flood-opacity="0" result="BackgroundImageFix"/>
<feColorMatrix in="SourceAlpha" type="matrix" values="0 0 0 0 0 0 0 0 0 0 0 0 0 0 0 0 0 0 127 0" result="hardAlpha"/>
<feOffset dy="4"/>
<feGaussianBlur stdDeviation="2"/>
<feComposite in2="hardAlpha" operator="out"/>
<feColorMatrix type="matrix" values="0 0 0 0 0 0 0 0 0 0 0 0 0 0 0 0 0 0 0.25 0"/>
<feBlend mode="normal" in2="BackgroundImageFix" result="effect1_dropShadow_2_59"/>
<feBlend mode="normal" in="SourceGraphic" in2="effect1_dropShadow_2_59" result="shape"/>
</filter>
</defs>
</svg>
